<svg xmlns="http://www.w3.org/2000/svg" viewBox="0 0 100 100">
  <defs>
    <radialGradient id="coinGrad" cx="40%" cy="35%">
      <stop offset="0%" stop-color="#F0D56C"/>
      <stop offset="50%" stop-color="#D4A843"/>
      <stop offset="100%" stop-color="#B8912A"/>
    </radialGradient>
    <radialGradient id="innerGrad" cx="40%" cy="35%">
      <stop offset="0%" stop-color="#EEDB7A"/>
      <stop offset="100%" stop-color="#D4A843"/>
    </radialGradient>
  </defs>
  <circle cx="50" cy="50" r="48" fill="url(#coinGrad)" stroke="#9A7B2D" stroke-width="3"/>
  <circle cx="50" cy="8" r="2" fill="#9A7B2D"/>
  <circle cx="50" cy="92" r="2" fill="#9A7B2D"/>
  <circle cx="8" cy="50" r="2" fill="#9A7B2D"/>
  <circle cx="92" cy="50" r="2" fill="#9A7B2D"/>
  <circle cx="20" cy="15" r="2" fill="#9A7B2D"/>
  <circle cx="80" cy="15" r="2" fill="#9A7B2D"/>
  <circle cx="20" cy="85" r="2" fill="#9A7B2D"/>
  <circle cx="80" cy="85" r="2" fill="#9A7B2D"/>
  <circle cx="10" cy="30" r="2" fill="#9A7B2D"/>
  <circle cx="90" cy="30" r="2" fill="#9A7B2D"/>
  <circle cx="10" cy="70" r="2" fill="#9A7B2D"/>
  <circle cx="90" cy="70" r="2" fill="#9A7B2D"/>
  <circle cx="30" cy="8" r="2" fill="#9A7B2D"/>
  <circle cx="70" cy="8" r="2" fill="#9A7B2D"/>
  <circle cx="30" cy="92" r="2" fill="#9A7B2D"/>
  <circle cx="70" cy="92" r="2" fill="#9A7B2D"/>
  <circle cx="50" cy="50" r="36" fill="none" stroke="#9A7B2D" stroke-width="1.5"/>
  <circle cx="50" cy="50" r="34" fill="url(#innerGrad)"/>
  <text x="50" y="65" font-family="Georgia, serif" font-size="44" font-weight="bold" fill="#0B3D2E" text-anchor="middle">£</text>
</svg>